<?xml version="1.0" encoding="UTF-8"?><svg xmlns="http://www.w3.org/2000/svg" viewBox="0 0 266.62 46.32"><defs><style>.d{fill:#4d5156;}</style></defs><g id="a"/><g id="b"><g id="c"><g><path className="d" d="M7.08,9.88v11.34H25.6v6.36H7.08v11.58H28.72v6.36H0V3.52H28v6.36H7.08Z"/><path className="d" d="M59.31,45.52v-4.94h-.12c-2.3,3.9-6.49,5.74-10.79,5.74-10.73,0-16.88-8.21-16.88-16.59,0-7.75,5.45-16.88,16.88-16.88,4.42,0,8.5,1.84,10.79,5.34h.12v-4.48h6.48v31.8h-6.48Zm-10.34-26.61c-6.76,0-10.04,6.04-10.04,10.77,0,5.44,4.17,10.61,9.99,10.61s10.2-4.84,10.2-10.61c0-6.42-4.49-10.77-10.14-10.77Z"/><path className="d" d="M77.68,19.96c2.16-4.32,6-6.6,11.04-6.6v6.6c-6.42-.36-10.5,3.42-11.04,8.88v16.68h-6.9V13.6h6.9v6.36Z"/><path className="d" d="M107.36,38.57c-1.57,.65-3.08,1.01-4.02,1.01-2.16,0-3.42-1.02-3.42-4.32v-15.3h9.42v-6.16h-9.42V3.52h-6.84V36.52c0,6.54,4.14,9.3,8.94,9.3,1.81,0,3.6-.39,5.34-1.09v-6.16Z"/><path className="d" d="M144.8,25.66v19.86h-6.9V27.58c0-4.8-2.88-7.74-7.68-7.74-5.7,.06-9.12,4.32-9.12,9.96v15.72h-6.9V0h6.9V19.84c2.28-4.5,6.36-6.48,11.82-6.48,7.44,0,11.88,4.68,11.88,12.3Z"/><path className="d" d="M175.28,39.1v6.42h-25.26V3.52h7.08V39.1h18.18Z"/><path className="d" d="M178.98,45.52V13.6h6.84v31.92h-6.84Z"/><path className="d" d="M221.44,25.66v19.86h-6.9V27.58c0-4.8-2.88-7.74-7.68-7.74-5.28,.06-8.58,3.72-9.06,8.7v16.98h-6.9V13.6h6.9v6.12c2.28-4.44,6.36-6.36,11.76-6.36,7.44,0,11.88,4.68,11.88,12.3Z"/><path className="d" d="M233.14,36.58v8.94h-6.9V3.52h6.9V27.88l14.1-14.28h7.92l-11.82,12.36,12.72,19.56h-8.16l-9.36-14.64-5.4,5.7Z"/><circle className="d" cx="182.4" cy="6.69" r="4.02"/><path className="d" d="M266.62,8.35c0,2.78-2.24,5.12-5.1,5.12s-5.06-2.31-5.06-5.08,2.22-5.12,5.08-5.12,5.07,2.29,5.07,5.08Zm-1.08,0c0-2.17-1.74-3.96-3.99-3.96s-4,1.82-4,3.99,1.73,3.96,3.98,3.96,4.02-1.82,4.02-3.99Zm-2.78,.67l1.07,1.62h-1.25l-.78-1.41h-1.11v1.41h-1.08V5.77h2.07c1.29,0,2.01,.62,2.01,1.68,0,.76-.33,1.3-.93,1.57Zm-1.08-.66c.61,0,.97-.32,.97-.87s-.36-.86-.97-.86h-.99v1.73h.99Z"/></g></g></g></svg>